She's.Out.of.My.League.2010.1080p.BluRay.mkv
********************************************

TiTLE......  She's Out of My League
YEAR.......  2010
GENRE......  Comedy | Romance
iMDB RATE..  User Rating: 6.7/10 (6,581 votes)
iMDB URL...  http://www.imdb.com/title/tt0815236/
*************************************************

Video
Duration                         : 1h 44mn
Overall bit rate                 : 9 118 Kbps
Width                            : 1 920 pixels
Height                           : 816 pixels
Display aspect ratio             : 2.35:1
Frame rate                       : 23.976 fps
Stream size                      : 5.42 GiB (81%)

Audio
Format                           : DTS
Bit rate                         : 1 510 Kbps
Channel(s)                       : 6 channels
Channel positions                : Front: L C R, Surround: L R, LFE
Sampling rate                    : 48.0 KHz
Stream size                      : 1.10 GiB (17%)
Language                         : English

Subtitles: English, Dutch
*************************


